<svg width="154" height="48" viewBox="0 0 154 48" fill="none" xmlns="http://www.w3.org/2000/svg">
<g clip-path="url(#clip0_1_3)">
<path d="M30.7 5H11.8C5.83532 5 1 9.62042 1 15.32V33.38C1 39.0796 5.83532 43.7 11.8 43.7H30.7C36.6647 43.7 41.5 39.0796 41.5 33.38V15.32C41.5 9.62042 36.6647 5 30.7 5Z" fill="#27374F"/>
<path d="M6 34L17.6923 15H25L13.3077 34H6Z" fill="white"/>
<path d="M18 34L29.6364 15H34L22.3636 34H18Z" fill="#F3903D"/>
<path d="M34.05 33.702C35.3921 33.702 36.48 32.6624 36.48 31.38C36.48 30.0976 35.3921 29.058 34.05 29.058C32.708 29.058 31.62 30.0976 31.62 31.38C31.62 32.6624 32.708 33.702 34.05 33.702Z" fill="#C12214"/>
<path d="M47.275 30.279C46.369 30.279 45.616 30.117 45.016 29.793C44.422 29.469 43.978 29.07 43.684 28.596C43.396 28.116 43.21 27.666 43.126 27.246C43.042 26.82 43 26.607 43 26.607L46.267 25.671C46.267 25.671 46.279 25.782 46.303 26.004C46.333 26.226 46.393 26.433 46.483 26.625C46.573 26.817 46.705 26.97 46.879 27.084C47.059 27.198 47.281 27.255 47.545 27.255C47.845 27.255 48.1 27.177 48.31 27.021C48.52 26.859 48.649 26.646 48.697 26.382L48.715 26.274C48.763 26.016 48.703 25.776 48.535 25.554C48.367 25.326 47.872 25.008 47.05 24.6C45.862 24.006 45.082 23.37 44.71 22.692C44.338 22.008 44.227 21.234 44.377 20.37L44.395 20.298C44.587 19.2 45.085 18.351 45.889 17.751C46.693 17.145 47.731 16.842 49.003 16.842C49.849 16.842 50.557 16.977 51.127 17.247C51.697 17.517 52.12 17.865 52.396 18.291C52.672 18.711 52.846 19.122 52.918 19.524C52.996 19.926 53.035 20.127 53.035 20.127L49.948 21.027C49.948 21.027 49.936 20.934 49.912 20.748C49.894 20.556 49.84 20.388 49.75 20.244C49.66 20.094 49.534 19.98 49.372 19.902C49.21 19.818 49.027 19.776 48.823 19.776C48.571 19.776 48.358 19.842 48.184 19.974C48.016 20.1 47.911 20.271 47.869 20.487L47.86 20.55C47.818 20.772 47.857 20.976 47.977 21.162C48.103 21.348 48.538 21.624 49.282 21.99C50.584 22.572 51.427 23.232 51.811 23.97C52.201 24.702 52.312 25.539 52.144 26.481L52.126 26.58C51.922 27.732 51.388 28.638 50.524 29.298C49.666 29.952 48.583 30.279 47.275 30.279ZM55.3438 30L57.3058 18.84H60.8968L58.9348 30H55.3438ZM54.4438 20.424L55.0288 17.112H63.7768L63.2008 20.424H54.4438ZM63.8749 30L66.1429 17.112H70.5169C71.9269 17.112 73.0129 17.517 73.7749 18.327C74.5369 19.137 74.8039 20.196 74.5759 21.504L74.5399 21.684C74.3239 22.902 73.7719 23.862 72.8839 24.564C71.9959 25.266 70.9039 25.617 69.6079 25.617H65.9989L66.4309 23.16H69.4909C69.8809 23.16 70.2049 23.058 70.4629 22.854C70.7269 22.65 70.8919 22.371 70.9579 22.017L71.0479 21.486C71.1079 21.138 71.0359 20.844 70.8319 20.604C70.6279 20.364 70.3459 20.244 69.9859 20.244H69.1849L67.4659 30H63.8749ZM70.0669 30L68.2129 24.267L71.6599 24.177L73.8559 30H70.0669ZM76.1388 30L78.4068 17.112H86.1918L85.6068 20.424H81.4218L80.3148 26.688H84.5808L83.9958 30H76.1388ZM79.1178 25.032L79.6488 22.035H84.8958L84.3648 25.032H79.1178ZM86.9438 30L89.2118 17.112H96.9968L96.4118 20.424H92.2268L91.1198 26.688H95.3858L94.8008 30H86.9438ZM89.9228 25.032L90.4538 22.035H95.7008L95.1698 25.032H89.9228ZM99.5127 30L101.475 18.84H105.066L103.104 30H99.5127ZM98.6127 20.424L99.1977 17.112H107.946L107.37 20.424H98.6127Z" fill="#27374F"/>
<path d="M107.549 30L107.999 27.444L112.112 23.25C112.646 22.74 113.042 22.32 113.3 21.99C113.564 21.654 113.72 21.339 113.768 21.045L113.804 20.865C113.846 20.631 113.807 20.436 113.687 20.28C113.567 20.124 113.39 20.046 113.156 20.046C112.976 20.046 112.817 20.091 112.679 20.181C112.541 20.265 112.412 20.397 112.292 20.577C112.172 20.751 112.061 20.949 111.959 21.171C111.863 21.393 111.815 21.504 111.815 21.504L109.016 20.532C109.016 20.532 109.133 20.262 109.367 19.722C109.607 19.176 109.916 18.693 110.294 18.273C110.672 17.853 111.134 17.508 111.68 17.238C112.226 16.968 112.913 16.833 113.741 16.833C114.995 16.833 115.967 17.205 116.657 17.949C117.353 18.687 117.599 19.62 117.395 20.748L117.377 20.856C117.269 21.486 117.044 22.077 116.702 22.629C116.366 23.175 115.889 23.733 115.271 24.303L112.724 26.859L112.742 26.931H116.585L116.045 30H107.549Z" fill="#C12214"/>
<path d="M121.982 25.455L119.579 17.112H123.323L124.061 20.919L124.16 21.729H124.223L124.574 20.919L126.644 17.112H130.577L125.132 25.455H121.982ZM120.992 30L122.045 24.033H125.618L124.574 30H120.992ZM134.84 30.279C133.064 30.279 131.738 29.652 130.862 28.398C129.992 27.138 129.74 25.464 130.106 23.376L130.223 22.692C130.565 20.802 131.267 19.353 132.329 18.345C133.391 17.337 134.72 16.833 136.316 16.833C138.08 16.833 139.406 17.463 140.294 18.723C141.182 19.977 141.443 21.633 141.077 23.691L140.96 24.375C140.624 26.295 139.919 27.759 138.845 28.767C137.771 29.775 136.436 30.279 134.84 30.279ZM135.137 26.85C135.665 26.85 136.115 26.679 136.487 26.337C136.859 25.989 137.099 25.5 137.207 24.87L137.621 22.521C137.741 21.849 137.654 21.306 137.36 20.892C137.066 20.472 136.631 20.262 136.055 20.262C135.515 20.262 135.059 20.439 134.687 20.793C134.321 21.147 134.081 21.639 133.967 22.269L133.553 24.627C133.439 25.287 133.526 25.824 133.814 26.238C134.108 26.646 134.549 26.85 135.137 26.85ZM147.32 30.279C145.814 30.279 144.68 29.826 143.918 28.92C143.162 28.008 142.916 26.805 143.18 25.311L144.629 17.112H148.22L146.726 25.617C146.642 26.067 146.684 26.421 146.852 26.679C147.026 26.931 147.302 27.057 147.68 27.057C148.046 27.057 148.343 26.937 148.571 26.697C148.805 26.451 148.961 26.097 149.039 25.635L150.542 17.112H154.097L152.576 25.743C152.318 27.195 151.727 28.314 150.803 29.1C149.885 29.886 148.724 30.279 147.32 30.279Z" fill="#F3903D"/>
<path d="M149.941 34H44.0588C43.4741 34 43 34.4477 43 35C43 35.5523 43.4741 36 44.0588 36H149.941C150.526 36 151 35.5523 151 35C151 34.4477 150.526 34 149.941 34Z" fill="#F3903D"/>
<path d="M149.244 38H119.756C119.756 38 119 38 119 39C119 40 119.756 40 119.756 40H149.244C149.244 40 150 40 150 39C150 38 149.244 38 149.244 38Z" fill="#F3903D"/>
</g>
<defs>
<clipPath id="clip0_1_3">
<rect width="154" height="48" fill="white"/>
</clipPath>
</defs>
</svg>
